#!OML:ASF F:\VICON\USERDATA\INSTALL\rory3\rory3.ASF
:FULLY-SPECIFIED
:DEGREES
268
root 11.0798 17.1069 26.0257 1.75903 33.2489 5.40566
lowerback 7.45105 1.51568 -3.73285
upperback 0.0844358 1.71602 0.376731
thorax -4.21551 0.931871 2.29873
lowerneck -15.6151 -3.42009 -8.9235
upperneck 19.2171 -3.20831 3.51074
head 8.80206 -1.77462 2.27838
rclavicle -7.30285e-014 -2.38542e-015
rhumerus -33.2786 -11.9129 -76.7235
rradius 35.9584
rwrist -2.50885
rhand -16.0858 12.1822
rfingers 7.12502
rthumb 10.1174 -17.5546
lclavicle -7.30285e-014 -2.38542e-015
lhumerus -43.5603 23.4049 73.2563
lradius 17.7294
lwrist -20.2089
lhand -11.7865 20.942
lfingers 7.12502
lthumb 14.2627 50.4322
rfemur -6.26704 0.626725 17.7512
rtibia 68.2051
rfoot 11.5672 4.34045
rtoes 7.75717
lfemur -23.0413 -0.11852 -29.0503
ltibia 32.4388
lfoot -4.83165 -2.44742
ltoes 5.36437
269
root 11.2147 17.119 26.2161 2.00753 33.372 5.85946
lowerback 7.32296 1.30188 -4.23039
upperback 0.263028 1.40084 0.431061
thorax -3.94967 0.7785 2.67515
lowerneck -15.5678 -3.05932 -8.92632
upperneck 18.8993 -2.68717 3.3993
head 8.64832 -1.53748 2.30379
rclavicle 5.57839e-014 -1.03368e-014
rhumerus -32.9678 -11.4081 -76.9808
rradius 35.2143
rwrist -1.15292
rhand -15.6923 12.1661
rfingers 7.12502
rthumb 10.497 -17.5518
lclavicle 5.57839e-014 -1.03368e-014
lhumerus -42.6767 23.2176 74.0083
lradius 17.6485
lwrist -19.091
lhand -12.047 21.6117
lfingers 7.12502
lthumb 14.0117 51.1195
rfemur -8.29587 -0.131761 17.1281
rtibia 70.4006
rfoot 9.34174 3.21109
rtoes 4.60439
lfemur -21.8391 -0.0932774 -29.5899
ltibia 31.6931
lfoot -4.99453 -2.40511
ltoes 4.0921
270
root 11.346 17.137 26.3953 2.10471 33.4766 5.86309
lowerback 7.46665 1.19749 -4.1218
upperback 0.150465 1.26084 0.405964
thorax -4.13349 0.712045 2.60005
lowerneck -15.1679 -2.92351 -8.74114
upperneck 18.6099 -2.52546 3.13633
head 8.4615 -1.47336 2.20425
rclavicle 5.59827e-014 -7.15625e-015
rhumerus -33.2729 -11.3498 -77.2249
rradius 34.6318
rwrist 0.141758
rhand -15.4584 12.634
rfingers 7.12502
rthumb 10.7226 -17.0724
lclavicle 5.59827e-014 -7.15625e-015
lhumerus -41.8392 21.7921 75.2884
lradius 17.9525
lwrist -17.2771
lhand -12.3382 23.0853
lfingers 7.12502
lthumb 13.7311 52.6123
rfemur -10.3554 -0.86306 16.9929
rtibia 72.1014
rfoot 7.56946 1.86866
rtoes 1.21748
lfemur -21.0842 -0.0791158 -29.6888
ltibia 31.6534
lfoot -5.6471 -2.10208
ltoes 2.75262
271
root 11.4802 17.169 26.5721 2.08329 33.6122 5.69686
lowerback 7.67289 1.14266 -3.76137
upperback -0.0141879 1.20516 0.365642
thorax -4.40794 0.683903 2.35699
lowerneck -14.9197 -2.96177 -8.65683
upperneck 18.6297 -2.59746 3.02458
head 8.4258 -1.51438 2.14583
rclavicle -2.07233e-014 -1.59028e-015
rhumerus -33.8943 -11.8299 -77.228
rradius 34.193
rwrist 1.75321
rhand -14.8321 13.0886
rfingers 7.12502
rthumb 11.3267 -16.5855
lclavicle -2.07233e-014 -1.59028e-015
lhumerus -41.2657 20.6107 76.0156
lradius 18.3216
lwrist -15.864
lhand -12.9996 20.2324
lfingers 7.12502
lthumb 13.0935 49.8014
rfemur -12.3445 -1.5837 16.9971
rtibia 73.3487
rfoot 6.24653 0.435082
rtoes 0.89493
lfemur -20.3189 -0.497476 -29.4288
ltibia 32.0044
lfoot -6.66331 -1.80606
ltoes 6.98277
272
root 11.6303 17.2193 26.7623 2.15097 33.8835 5.67045
lowerback 7.41974 0.955389 -3.53836
upperback 0.0105633 0.986542 0.379239
thorax -4.22045 0.567445 2.2742
lowerneck -14.7567 -2.90091 -8.87279
upperneck 18.6631 -2.49751 3.12427
head 8.40627 -1.47365 2.22844
rclavicle -1.43373e-014 -6.36111e-015
rhumerus -33.6988 -11.6766 -77.354
rradius 32.6709
rwrist 3.29927
rhand -14.6501 13.6977
rfingers 7.12502
rthumb 11.5022 -15.9667
lclavicle -1.43373e-014 -6.36111e-015
lhumerus -40.8085 20.7393 75.9258
lradius 18.4013
lwrist -15.968
lhand -13.2014 16.724
lfingers 7.12502
lthumb 12.8991 46.3054
rfemur -14.0299 -2.35345 16.8325
rtibia 74.1723
rfoot 5.05734 -0.735114
rtoes 1.93945
lfemur -19.4421 -0.989496 -29.3045
ltibia 32.4369
lfoot -7.99908 -1.55445
ltoes 11.806
273
root 11.7705 17.2282 26.9551 2.14821 34.0768 5.78593
lowerback 7.28889 0.772174 -3.60086
upperback 0.0995777 0.746382 0.434551
thorax -4.03977 0.445936 2.39517
lowerneck -14.6335 -2.83624 -9.23662
upperneck 18.6605 -2.35732 3.23938
head 8.38153 -1.42212 2.34455
rclavicle 3.37437e-014 1.03368e-014
rhumerus -33.406 -11.4509 -77.4963
rradius 31.126
rwrist 4.91729
rhand -14.6945 14.046
rfingers 7.12502
rthumb 11.4594 -15.6208
lclavicle 3.37437e-014 1.03368e-014
lhumerus -40.3539 20.6329 76.158
lradius 18.708
lwrist -16.3019
lhand -12.7859 15.653
lfingers 7.12502
lthumb 13.2995 45.2086
rfemur -15.5701 -3.19504 16.559
rtibia 74.8607
rfoot 3.72289 -1.75591
rtoes 3.14401
lfemur -18.5982 -1.03372 -29.5371
ltibia 32.8126
lfoot -9.20501 -0.972945
ltoes 9.64814
274
root 11.8969 17.1973 27.1369 2.12644 34.1532 5.93623
lowerback 7.41959 0.695153 -3.69535
upperback 0.119322 0.631535 0.445756
thorax -4.08602 0.39157 2.47172
lowerneck -14.5615 -2.79185 -9.32277
upperneck 18.7702 -2.27707 3.21668
head 8.40168 -1.39471 2.36183
rclavicle -9.04967e-014 5.56597e-015
rhumerus -33.8227 -11.9329 -77.3695
rradius 30.7224
rwrist 6.69982
rhand -13.9819 13.7393
rfingers 7.12502
rthumb 12.1466 -15.888
lclavicle -9.04967e-014 5.56597e-015
lhumerus -39.771 19.9623 76.8519
lradius 19.2009
lwrist -16.3706
lhand -13.1386 17.0665
lfingers 7.12502
lthumb 12.9596 46.644
rfemur -17.2774 -3.78019 16.384
rtibia 75.4955
rfoot 2.20969 -2.75372
rtoes 3.86205
lfemur -17.808 -0.537494 -29.9302
ltibia 33.1741
lfoot -10.1419 -0.652629
ltoes 4.11903
275
root 12.0219 17.1834 27.3098 2.21749 34.3012 6.04537
lowerback 7.70046 0.655912 -3.572
upperback -0.0306138 0.571142 0.334128
thorax -4.39334 0.365471 2.29071
lowerneck -14.3191 -2.72729 -8.94163
upperneck 18.9244 -2.23892 2.92987
head 8.39918 -1.38197 2.20936
rclavicle -5.73991e-015 0
rhumerus -34.562 -12.7442 -77.2263
rradius 30.5645
rwrist 8.13953
rhand -13.0613 13.2885
rfingers 7.12502
rthumb 13.0341 -16.2843
lclavicle -5.73991e-015 0
lhumerus -39.1446 19.2266 77.3443
lradius 19.5651
lwrist -16.5481
lhand -13.6057 19.4026
lfingers 7.12502
lthumb 12.5093 49.0081
rfemur -19.0385 -4.32897 16.3159
rtibia 75.8927
rfoot 0.725755 -3.42204
rtoes 3.17405
lfemur -17.1552 -0.640382 -30.0818
ltibia 33.3431
lfoot -10.5833 -0.867738
ltoes 5.22419
276
root 12.147 17.1742 27.4792 2.29393 34.3663 5.94839
lowerback 7.85205 0.55604 -3.37151
upperback -0.162109 0.447985 0.335363
thorax -4.60581 0.305264 2.19235
lowerneck -13.9143 -2.64273 -8.41124
upperneck 18.7552 -2.16502 2.37265
head 8.25231 -1.36395 1.94418
rclavicle -8.34896e-014 1.35174e-014
rhumerus -35.2856 -13.3887 -77.0849
rradius 30.7017
rwrist 9.4629
rhand -12.5561 12.91
rfingers 7.12502
rthumb 13.5211 -16.631
lclavicle -8.34896e-014 1.35174e-014
lhumerus -38.5989 18.4595 77.8769
lradius 20.1195
lwrist -16.2709
lhand -13.5373 20.7841
lfingers 7.12502
lthumb 12.5753 50.3856
rfemur -20.8533 -4.76133 16.4841
rtibia 76.0086
rfoot -0.840567 -3.81235
rtoes 1.35136
lfemur -16.5083 -0.980249 -30.0264
ltibia 33.5035
lfoot -11.3195 -0.680971
ltoes 6.11421
277
root 12.2785 17.1553 27.6588 2.50222 34.4834 6.31692
lowerback 7.86269 0.443637 -3.6558
upperback -0.119185 0.272066 0.323706
thorax -4.55752 0.223299 2.36109
lowerneck -13.6836 -2.58706 -8.17
upperneck 18.5063 -2.08668 1.99501
head 8.11683 -1.34387 1.78691
rclavicle 1.81143e-014 -7.95139e-016
rhumerus -35.7996 -13.7481 -76.9713
rradius 30.725
rwrist 10.2952
rhand -12.6309 12.8227
rfingers 7.12502
rthumb 13.449 -16.7231
lclavicle 1.81143e-014 -7.95139e-016
lhumerus -37.9466 18.1201 78.1964
lradius 20.3909
lwrist -16.2762
lhand -13.1416 20.1727
lfingers 7.12502
lthumb 12.9567 49.7504
rfemur -22.4162 -5.10313 16.2257
rtibia 75.8923
rfoot -2.31073 -4.0973
rtoes 0.261298
lfemur -15.7262 -1.11716 -30.4878
ltibia 33.5177
lfoot -11.9868 -0.214812
ltoes 4.13544
278
root 12.4115 17.1851 27.8486 2.78024 34.6323 6.85974
lowerback 7.89305 0.36034 -4.18343
upperback -0.0751172 0.112283 0.322883
thorax -4.51965 0.154919 2.67625
lowerneck -13.6798 -2.63095 -8.37279
upperneck 18.5809 -2.1018 2.00055
head 8.14569 -1.36591 1.82058
rclavicle 6.93262e-014 -5.56597e-015
rhumerus -36.256 -14.085 -76.7725
rradius 30.5152
rwrist 10.8954
rhand -12.5933 12.6842
rfingers 7.12502
rthumb 13.4852 -16.8592
lclavicle 6.93262e-014 -5.56597e-015
lhumerus -37.3014 17.9525 78.5054
lradius 20.662
lwrist -16.5399
lhand -12.8571 18.7367
lfingers 7.12502
lthumb 13.231 48.2968
rfemur -23.8288 -5.13607 15.8113
rtibia 75.3853
rfoot -3.49668 -4.34107
rtoes -0.320358
lfemur -14.5438 -2.19773 -30.7988
ltibia 33.4737
lfoot -12.8745 -0.0490984
ltoes 11.5935
279
root 12.5361 17.1814 28.0364 2.81555 34.6946 6.74862
lowerback 7.79489 0.274462 -4.24754
upperback 0.000985131 0.00788175 0.535599
thorax -4.37705 0.10261 2.94604
lowerneck -13.9858 -2.67895 -8.53948
upperneck 18.7651 -2.07269 1.87505
head 8.26352 -1.37883 1.80741
rclavicle 1.1614e-013 -9.54166e-015
rhumerus -36.4422 -14.3275 -76.5505
rradius 30.1764
rwrist 11.1785
rhand -12.7703 12.7548
rfingers 7.12502
rthumb 13.3146 -16.7998
lclavicle 1.1614e-013 -9.54166e-015
lhumerus -36.3837 18.196 78.8481
lradius 20.7645
lwrist -16.9095
lhand -12.9682 18.0575
lfingers 7.12502
lthumb 13.1238 47.6245
rfemur -25.5327 -4.9434 16.0519
rtibia 74.8059
rfoot -4.54937 -4.55606
rtoes -0.36269
lfemur -13.8104 -1.99065 -30.8616
ltibia 33.2117
lfoot -13.5396 0.713267
ltoes 5.32513
280
root 12.658 17.1513 28.2203 2.91857 34.7933 6.87252
lowerback 7.7306 0.197941 -4.51004
upperback 0.119895 -0.104933 0.691677
thorax -4.20716 0.04793 3.26923
lowerneck -14.2053 -2.62207 -8.54146
upperneck 18.6802 -1.91685 1.60585
head 8.26484 -1.33006 1.73284
rclavicle -9.49197e-015 -7.95139e-016
rhumerus -36.4442 -13.9957 -76.5678
rradius 29.7308
rwrist 10.5991
rhand -13.0983 12.8957
rfingers 7.12502
rthumb 12.9984 -16.6793
lclavicle -9.49197e-015 -7.95139e-016
lhumerus -35.6458 17.9057 79.3578
lradius 21.1897
lwrist -16.8116
lhand -13.3306 17.2152
lfingers 7.12502
lthumb 12.7745 46.8044
rfemur -27.0909 -4.95789 16.0194
rtibia 74.0703
rfoot -5.80616 -4.50332
rtoes -0.911765
lfemur -13.0314 -1.55115 -31.1651
ltibia 32.9896
lfoot -14.2595 1.28794
ltoes -0.545513
281
root 12.7857 17.1263 28.405 3.12162 35.0042 7.28803
lowerback 7.82659 0.0997175 -4.85759
upperback 0.151536 -0.272803 0.644287
thorax -4.2121 -0.0290088 3.43536
lowerneck -14.1695 -2.51724 -8.34374
upperneck 18.549 -1.78786 1.43536
head 8.20344 -1.2696 1.65775
rclavicle 3.67752e-014 -3.18055e-015
rhumerus -36.7458 -13.9826 -76.615
rradius 29.3714
rwrist 10.0746
rhand -13.0106 12.7533
rfingers 7.12502
rthumb 13.083 -16.8163
lclavicle 3.67752e-014 -3.18055e-015
lhumerus -35.1017 16.8809 79.9072
lradius 21.9311
lwrist -16.0071
lhand -13.2499 18.2684
lfingers 7.12502
lthumb 12.8523 47.8527
rfemur -28.3949 -5.04769 15.6699
rtibia 73.082
rfoot -7.05451 -4.29017
rtoes -1.87932
lfemur -12.0325 -1.68585 -31.6201
ltibia 32.8198
lfoot -15.154 1.42549
ltoes 0.911929
282
root 12.9177 17.1084 28.5933 3.3229 35.1611 7.57206
lowerback 7.83312 -0.0170551 -5.07391
upperback 0.166785 -0.449565 0.598492
thorax -4.18199 -0.113734 3.52941
lowerneck -14.487 -2.54167 -8.51648
upperneck 18.8944 -1.81265 1.74593
head 8.38198 -1.26885 1.78721
rclavicle -3.91109e-014 9.54166e-015
rhumerus -37.0399 -14.197 -76.6355
rradius 29.0045
rwrist 9.96894
rhand -13.0606 12.8384
rfingers 7.12502
rthumb 13.0348 -16.7344
lclavicle -3.91109e-014 9.54166e-015
lhumerus -34.2544 15.9134 80.5352
lradius 22.529
lwrist -15.1064
lhand -13.2059 22.0783
lfingers 7.12502
lthumb 12.8947 51.66
rfemur -29.6795 -5.05921 15.4281
rtibia 71.8382
rfoot -7.72414 -3.88494
rtoes -4.08725
lfemur -11.0318 -2.28196 -31.9285
ltibia 32.6995
lfoot -15.8133 1.79799
ltoes 3.32681
